<?xml version="1.0" encoding="utf-8"?>
<!-- Generator: Adobe Illustrator 26.3.1, SVG Export Plug-In . SVG Version: 6.00 Build 0)  -->
<svg version="1.1" id="iconWithBackground" xmlns="http://www.w3.org/2000/svg" xmlns:xlink="http://www.w3.org/1999/xlink" x="0px"
	 y="0px" viewBox="0 0 1200 1200" style="enable-background:new 0 0 1200 1200;" xml:space="preserve">
<style type="text/css">
	.st0{fill:url(#r4_00000065771762061968229300000012221421531839245964_);}
	.st1{fill:#FFFFFF;}
</style>
<linearGradient id="r4_00000091696541311100358900000003279260157448753317_" gradientUnits="userSpaceOnUse" x1="208.9867" y1="580.1976" x2="208.9867" y2="1092.1976" gradientTransform="matrix(2.3438 0 0 -2.3438 110.1875 2522.25)">
	<stop  offset="0" style="stop-color:#FA233B"/>
	<stop  offset="0.9967" style="stop-color:#FB5C74"/>
</linearGradient>
<path id="r4" style="fill:url(#r4_00000091696541311100358900000003279260157448753317_);" d="M187.5,0h825
	C1116.1,0,1200,83.9,1200,187.5v825c0,103.6-83.9,187.5-187.5,187.5h-825C83.9,1200,0,1116.1,0,1012.5v-825C0,83.9,83.9,0,187.5,0z"
	/>
<path class="st1" d="M702.5,414.5c-11.4-14.8-27-25.8-44.7-31.7l-45.8-14.9c-9.4-3.3-14.3-13.7-11-23.1c1.8-5.1,5.8-9.1,11-11
	l45.8-14.9c27.4-9.5,49-31.1,58.4-58.5l0.4-1.1l14.9-45.7c3.3-9.4,13.6-14.4,23-11.1c5.2,1.8,9.3,5.9,11.1,11.1l14.8,45.7
	c9.4,28.2,31.5,50.3,59.7,59.6l45.7,14.9l0.9,0.2c9.4,3.3,14.3,13.7,11,23.1c-1.8,5.1-5.8,9.1-11,11L841,383
	c-28.2,9.4-50.3,31.5-59.7,59.6l-14.9,45.7c-3.3,9.4-13.6,14.3-23,11c-5.2-1.8-9.2-5.9-11-11l-14.9-45.7
	C714.2,432.5,709.1,422.9,702.5,414.5 M958.1,540.7l-25.4-8.2c-15.7-5.2-27.9-17.5-33.1-33.2l-8.3-25.4c-1.8-5.2-7.6-8-12.8-6.1
	c-2.9,1-5.1,3.3-6.1,6.1l-8.2,25.4c-5.1,15.6-17.2,27.8-32.7,33.2l-25.4,8.2c-5.2,1.8-8,7.6-6.1,12.8c1,2.9,3.3,5.1,6.1,6.1
	l25.4,8.3c15.7,5.2,28,17.6,33.2,33.3l8.2,25.4c1.8,5.2,7.6,8,12.8,6.1c2.9-1,5.1-3.3,6.1-6.1l8.3-25.4c5.2-15.7,17.5-28,33.2-33.2
	l25.4-8.2c5.2-1.8,8-7.6,6.1-12.8c-1-2.9-3.3-5.1-6.1-6.1L958.1,540.7z M653.5,283.5C607,254,545.5,267.7,516,314.1
	c-2.9,4.5-5.4,9.3-7.5,14.2L367,658.4c-0.6,1.4-1.2,2.7-1.8,4.1l-56,130.7c-21.7,50.6,1.7,109.1,52.3,130.8
	c50.6,21.7,109.1-1.7,130.8-52.3l31-72.4h153.2l31,72.4c21.7,50.6,80.2,74,130.8,52.3c50.6-21.7,74-80.2,52.3-130.8l-56-130.7
	c-0.6-1.4-1.1-2.8-1.8-4.2l-26.7-62.3l-4.6-1.2c-2.7-0.7-5.4-1.4-8.1-2.2c-17.2-6.3-28.7-22.6-28.9-40.8c0-7.7,2-15.3,6-21.9
	c-7,3.6-14.7,5.4-22.6,5.3c-7.9,0-15.5-1.9-22.3-5.2c-10.2-4-19.5-9.9-27.5-17.4l74.3,173.3l0.6,1.4l56.6,132.1
	c7.6,16.7,0.3,36.4-16.4,44s-36.4,0.3-44-16.4c-0.2-0.5-0.4-1-0.6-1.5l-48.3-112.7H479.6l-48.3,112.7c-7,17-26.4,25-43.3,18.1
	c-17-7-25-26.4-18.1-43.3c0.1-0.3,0.2-0.6,0.4-0.9l56.6-132.1c0.2-0.5,0.4-0.9,0.6-1.4l140.1-327c-0.5-2.9-0.8-5.9-0.8-8.9
	c0.1-22,14.1-41.6,34.9-48.8l44.5-14.6C648.6,285.7,651.1,284.7,653.5,283.5 M508.1,666.4H692l-92-214.5L508.1,666.4z"/>
</svg>
